<?xml version="1.0" encoding="UTF-8" standalone="no"?>
<svg width="17px" height="16px" viewBox="0 0 17 16" version="1.1" xmlns="http://www.w3.org/2000/svg" xmlns:xlink="http://www.w3.org/1999/xlink">
    <!-- Generator: Sketch 42 (36781) - http://www.bohemiancoding.com/sketch -->
    <title>Share</title>
    <desc>Created with Sketch.</desc>
    <defs></defs>
    <g id="Symbols" stroke="none" stroke-width="1" fill="none" fill-rule="evenodd">
        <g id="Article-Detail" transform="translate(-297.000000, -36.000000)" fill="#999FA5">
            <g id="Share" transform="translate(297.000000, 36.000000)">
                <path d="M16.6462194,13.4256319 L16.6520355,13.4256319 L16.6520355,15.2053542 L-2.66453526e-14,15.2053542 L-2.6536376e-14,13.4256319 L0.00581603361,13.4256319 L0.00581603361,9.16404217 L1.78553832,9.16404217 L1.78553832,13.4256319 L14.8664971,13.4256319 L14.8664971,9.16404217 L16.6462194,9.16404217 L16.6462194,13.4256319 Z M7.56912258,10.5965496 L7.53943981,2.28999239 L4.88283166,4.94474481 L3.94782432,3.98072857 L7.54110795,0.365191017 C7.94229314,-0.0384787897 8.56890012,-0.0394777855 8.96003042,0.343483198 L12.6597181,3.96589755 L11.6505038,4.91508277 L8.91968874,2.17134424 L8.91977028,10.5965496 L7.56912258,10.5965496 Z" id="Combined-Shape"></path>
            </g>
        </g>
    </g>
</svg>