<?xml version="1.0" encoding="UTF-8" standalone="no"?>
<svg width="16px" height="16px" viewBox="0 0 16 16" version="1.1" xmlns="http://www.w3.org/2000/svg" xmlns:xlink="http://www.w3.org/1999/xlink">
    <!-- Generator: Sketch 42 (36781) - http://www.bohemiancoding.com/sketch -->
    <title>global-search</title>
    <desc>Created with Sketch.</desc>
    <defs></defs>
    <g id="Mobile" stroke="none" stroke-width="1" fill="none" fill-rule="evenodd">
        <g id="6-Application-Tap" transform="translate(-325.000000, -111.000000)" fill="#85929E">
            <g id="FILTER" transform="translate(62.000000, 97.000000)">
                <path d="M278.781189,27.4833414 L278.685184,27.3862698 L274.827924,23.52581 C275.363418,22.6020304 275.6749,21.5310435 275.682367,20.3853862 C275.704768,16.8801441 272.88436,14.0213344 269.381252,14 L269.33965,14 C265.856809,14 263.022534,16.8140075 263.000133,20.3043155 C262.977731,23.8095575 265.798139,26.6683673 269.300181,26.6907684 L269.341783,26.6907684 C270.505575,26.6907684 271.596829,26.3750192 272.535543,25.8267251 L276.389603,29.6839848 L276.486674,29.7799896 C276.777889,30.0712042 277.250446,30.0712042 277.54166,29.7799896 L278.781189,28.5383275 C279.072403,28.2471129 279.07347,27.7745559 278.781189,27.4833414 L278.781189,27.4833414 Z M269.310848,25.0714873 C266.705918,25.0554865 264.600213,22.9209797 264.61728,20.3149827 C264.633281,17.7249864 266.752854,15.6171476 269.33965,15.6171476 L269.371651,15.6171476 C270.633581,15.6256813 271.816574,16.1249063 272.703018,17.0230846 C273.589462,17.9212629 274.072687,19.1117225 274.06522,20.3757857 C274.056686,21.6323819 273.561728,22.813241 272.66995,23.6986186 C271.779238,24.585063 270.597313,25.0714873 269.341783,25.0714873 L269.310848,25.0714873 L269.310848,25.0714873 Z" id="global-search"></path>
            </g>
        </g>
    </g>
</svg>