<?xml version="1.0" encoding="UTF-8" standalone="no"?>
<svg width="18px" height="18px" viewBox="0 0 18 18" version="1.1" xmlns="http://www.w3.org/2000/svg" xmlns:xlink="http://www.w3.org/1999/xlink">
    <!-- Generator: Sketch 42 (36781) - http://www.bohemiancoding.com/sketch -->
    <title>Support-Icon</title>
    <desc>Created with Sketch.</desc>
    <defs></defs>
    <g id="Interactivism-Documentation-Project-2017-03-01" stroke="none" stroke-width="1" fill="none" fill-rule="evenodd">
        <g id="16" transform="translate(-50.000000, -656.000000)" fill="#AAADB8">
            <g id="Group-4" transform="translate(50.000000, 309.000000)">
                <path d="M2.62802406,362.371976 C3.43800401,363.181956 4.39153486,363.812297 5.48941858,364.280642 C6.60574738,364.76663 7.77580753,365 8.99959902,365 C10.2057474,365 11.3758075,364.76663 12.4921363,364.280642 C13.6084651,363.812297 14.561996,363.181956 15.3719759,362.371976 C16.1643128,361.561996 16.8122967,360.608465 17.2798396,359.510581 C17.7666295,358.394253 18,357.224192 18,356.000401 C18,354.794253 17.7666295,353.624192 17.2798396,352.507864 C16.8122967,351.392337 16.1643128,350.438004 15.3719759,349.628024 C14.561996,348.835687 13.6084651,348.187703 12.4921363,347.72016 C11.3758075,347.234172 10.2057474,347 8.99959902,347 C7.77580753,347 6.60574738,347.234172 5.48941858,347.72016 C4.39153486,348.187703 3.43800401,348.835687 2.62802406,349.628024 C1.81804411,350.438004 1.18770327,351.392337 0.719358432,352.507864 C0.233370461,353.624192 0,354.794253 0,356.000401 C0,357.224192 0.233370461,358.394253 0.719358432,359.510581 C1.18770327,360.608465 1.81804411,361.561996 2.62802406,362.371976 L2.62802406,362.371976 Z M2.17732234,352.381956 L4.13971931,354.325908 C3.94163511,354.884072 3.85181555,355.442237 3.85181555,356.000401 C3.85181555,356.576209 3.94163511,357.134373 4.13971931,357.691735 L2.17732234,359.636489 C1.58387169,358.484072 1.27752283,357.277924 1.27752283,356.000401 C1.27752283,354.739719 1.58387169,353.534373 2.17732234,352.381956 L2.17732234,352.381956 Z M8.99959902,352.147783 C10.0621965,352.147783 10.961996,352.526309 11.7182446,353.281755 C12.4736912,354.038004 12.8522165,354.937804 12.8522165,356.000401 C12.8522165,357.07984 12.4736912,357.980441 11.7182446,358.735888 C10.961996,359.492136 10.0621965,359.86986 8.99959902,359.86986 C7.92016039,359.86986 7.01955892,359.492136 6.26411227,358.735888 C5.50786367,357.980441 5.13014034,357.07984 5.13014034,356.000401 C5.13014034,354.937804 5.50786367,354.038004 6.26411227,353.281755 C7.01955892,352.526309 7.92016039,352.147783 8.99959902,352.147783 L8.99959902,352.147783 Z M7.30826465,360.860281 C7.86562709,361.058365 8.42379149,361.148184 8.99959902,361.148184 C9.55776342,361.148184 10.1159278,361.058365 10.6740922,360.860281 L12.6180441,362.822678 C11.466429,363.416128 10.2602807,363.722477 8.99959902,363.722477 C7.72207619,363.722477 6.51592782,363.416128 5.3635108,362.822678 L7.30826465,360.860281 L7.30826465,360.860281 Z M8.99959902,348.277523 C10.2602807,348.277523 11.466429,348.583872 12.6180441,349.195767 L10.6740922,351.158164 C10.1159278,350.96008 9.55776342,350.870261 8.99959902,350.870261 C8.42379149,350.870261 7.86562709,350.96008 7.30826465,351.158164 L5.3635108,349.195767 C6.51592782,348.583872 7.72207619,348.277523 8.99959902,348.277523 L8.99959902,348.277523 Z M14.1297394,356.000401 C14.1297394,355.442237 14.0399198,354.884072 13.8418356,354.325908 L15.8042326,352.381956 C16.4161283,353.534373 16.7224772,354.739719 16.7224772,356.000401 C16.7224772,357.277924 16.4161283,358.484072 15.8042326,359.636489 L13.8418356,357.691735 C14.0399198,357.134373 14.1297394,356.576209 14.1297394,356.000401 L14.1297394,356.000401 Z" id="Support-Icon"></path>
            </g>
        </g>
    </g>
</svg>