<?xml version="1.0" encoding="UTF-8" standalone="no"?>
<svg width="18px" height="18px" viewBox="0 0 18 18" version="1.1" xmlns="http://www.w3.org/2000/svg" xmlns:xlink="http://www.w3.org/1999/xlink">
    <!-- Generator: Sketch 42 (36781) - http://www.bohemiancoding.com/sketch -->
    <title>Help-Icon</title>
    <desc>Created with Sketch.</desc>
    <defs></defs>
    <g id="Interactivism-Documentation-Project-2017-03-01" stroke="none" stroke-width="1" fill="none" fill-rule="evenodd">
        <g id="16" transform="translate(-50.000000, -697.000000)" fill="#AAADB8">
            <g id="Group-4" transform="translate(50.000000, 309.000000)">
                <path d="M4.47379913,404.802246 C5.85963818,405.600437 7.37180287,406 9.0102932,406 C10.6272614,406 12.1394261,405.600437 13.5262009,404.802246 C14.8914535,403.983468 15.9834685,402.891454 16.8022458,401.526201 C17.6004367,400.139426 18,398.648784 18,397.010293 C18,395.371803 17.6004367,393.859638 16.8022458,392.494386 C15.9834685,391.108546 14.8914535,390.015596 13.5262009,389.218341 C12.1394261,388.398628 10.6272614,388 9.0102932,388 C7.37180287,388 5.85963818,388.398628 4.47379913,389.218341 C3.10854648,390.015596 2.01559576,391.108546 1.19681847,392.494386 C0.398627573,393.859638 0,395.371803 0,397.010293 C0,398.648784 0.398627573,400.139426 1.19681847,401.526201 C2.01559576,402.891454 3.10854648,403.983468 4.47379913,404.802246 L4.47379913,404.802246 Z M9.24142233,391.002807 C9.91328759,391.002807 10.5851528,391.171241 11.2364317,391.486588 C11.8877105,391.800998 12.4126638,392.263256 12.8533999,392.85184 C13.2950717,393.439488 13.5046787,394.070181 13.5046787,394.762633 C13.5046787,395.098565 13.4625702,395.413911 13.3577667,395.707735 C13.2529632,396.002495 13.1481597,396.232689 13.0218341,396.421709 C12.9170306,396.590143 12.72801,396.779164 12.5174672,396.968185 C12.2863381,397.177792 12.0973175,397.304117 11.9719276,397.388334 C11.8250156,397.472551 11.635995,397.577355 11.3833437,397.724267 C11.1316282,397.871179 10.9210855,398.0602 10.753587,398.312851 C10.5851528,398.543044 10.5018715,398.732065 10.5018715,398.879913 C10.5018715,398.984716 10.4597629,399.08952 10.3961323,399.152215 C10.3334373,399.215845 10.2286338,399.257954 10.1238303,399.257954 L7.87616968,399.257954 C7.77136619,399.257954 7.66562695,399.215845 7.602932,399.152215 C7.54023706,399.08952 7.49812851,398.984716 7.49812851,398.879913 L7.49812851,398.459763 C7.49812851,397.93481 7.7077355,397.451029 8.10729881,396.988771 C8.52744853,396.527449 8.96818465,396.191516 9.47255147,395.980973 C9.85059264,395.791953 10.1023082,395.623518 10.2707424,395.45602 C10.4176544,395.266999 10.5018715,395.03587 10.5018715,394.742046 C10.5018715,394.468808 10.3540237,394.237679 10.0601996,394.048659 C9.76637555,393.839052 9.43044292,393.733313 9.05240175,393.733313 C8.65283843,393.733313 8.3169058,393.839052 8.04366812,394.00655 C7.79195259,394.195571 7.45601996,394.573612 7.03587024,395.098565 C6.9731753,395.182782 6.86743606,395.245477 6.74204616,395.245477 C6.65782907,395.245477 6.57361198,395.204304 6.53150343,395.162196 L4.97723019,393.985964 C4.80973175,393.859638 4.76762321,393.691204 4.8930131,393.502183 C5.88116032,391.843107 7.32969432,391.002807 9.24142233,391.002807 L9.24142233,391.002807 Z M7.49812851,400.392077 C7.49812851,400.286338 7.54023706,400.181535 7.602932,400.11884 C7.66562695,400.056145 7.77136619,400.014036 7.87616968,400.014036 L10.1238303,400.014036 C10.2286338,400.014036 10.3334373,400.056145 10.3961323,400.11884 C10.4597629,400.181535 10.5018715,400.286338 10.5018715,400.392077 L10.5018715,402.618216 C10.5018715,402.723019 10.4597629,402.827823 10.3961323,402.891454 C10.3334373,402.954148 10.2286338,402.996257 10.1238303,402.996257 L7.87616968,402.996257 C7.77136619,402.996257 7.66562695,402.954148 7.602932,402.891454 C7.54023706,402.827823 7.49812851,402.723019 7.49812851,402.618216 L7.49812851,400.392077 L7.49812851,400.392077 Z" id="Help-Icon"></path>
            </g>
        </g>
    </g>
</svg>